<svg xmlns="http://www.w3.org/2000/svg" width="1200" height="1500" viewBox="0 0 1200 1500" role="img" aria-labelledby="titleDesc">
  <title id="titleDesc">CommIT Connect logo — shield with padlock, Wi-Fi icon, user silhouette and text</title>
  <defs>
    <style>
      .brand-blue { fill: #0b5fa8; }
      .brand-blue-stroke { fill: none; stroke: #0b5fa8; stroke-width: 26; stroke-linecap: round; stroke-linejoin: round; }
      .text-main { font-family: "Montserrat", "Helvetica Neue", Arial, sans-serif; font-weight: 700; letter-spacing: -1px; }
      .text-tag { font-family: "Montserrat", "Helvetica Neue", Arial, sans-serif; font-weight: 500; letter-spacing: 3px; }
    </style>
  </defs>
  <g transform="translate(60,40)">
    <path class="brand-blue-stroke" d="M 600 120 L 980 200 C 1000 210 1015 240 1015 270 L 1015 520 C 1015 780 800 930 600 1030 C 400 930 185 780 185 520 L 185 270 C 185 240 200 210 220 200 L 600 120 Z"/>
    <rect x="470" y="340" width="260" height="200" rx="26" ry="26" class="brand-blue" />
    <path d="M 550 340 V 300 A 50 50 0 0 1 700 300 V 340" fill="none" stroke="#0b5fa8" stroke-width="18" stroke-linecap="round" stroke-linejoin="round"/>
    <circle cx="600" cy="440" r="20" fill="#ffffff"/>
    <rect x="592" y="455" width="16" height="34" rx="6" ry="6" fill="#ffffff"/>
    <g transform="translate(-120,40)" stroke="#0b5fa8" stroke-width="24" stroke-linecap="round" fill="none">
      <path d="M 475 420 C 515 380 605 380 645 420" />
      <path d="M 500 460 C 535 430 575 430 610 460" stroke-width="20" />
      <circle cx="600" cy="520" r="18" fill="#0b5fa8" stroke="none"/>
    </g>
    <g transform="translate(220,50)">
      <circle cx="830" cy="460" r="34" class="brand-blue" />
      <path d="M 770 520 C 770 480 894 480 894 520 C 894 560 770 560 770 520 Z" class="brand-blue"/>
    </g>
  </g>
  <g transform="translate(0,1120)">
    <text x="50%" y="0" text-anchor="middle" class="text-main" style="font-size:120px; fill:#0b5fa8;">CommIT</text>
    <text x="50%" y="120" text-anchor="middle" class="text-main" style="font-size:120px; fill:#0b5fa8;">Connect</text>
    <text x="50%" y="220" text-anchor="middle" class="text-tag" style="font-size:36px; fill:#0b5fa8;">TECHNOLOGY BLOG</text>
  </g>
</svg>
